<svg xmlns="http://www.w3.org/2000/svg" viewBox="0 0 512.006 512.006" fill="#fff"><path d="M502.05 407.127L394.83 335.65c-9.738-6.48-22.825-4.355-30.014 4.873l-31.223 40.14a22.24 22.24 0 0 1-28.39 5.888c-21.186-11.785-46.24-22.88-101.517-78.23s-66.445-80.33-78.23-101.517a22.24 22.24 0 0 1 5.888-28.389l40.14-31.223c9.227-7.188 11.352-20.275 4.873-30.014L104.88 9.956C98.262.03 85.016-2.95 74.786 3.185L29.95 30.083A54.78 54.78 0 0 0 5.074 62.277C-7.187 106.98-9.66 205.593 148.38 363.633s256.644 155.56 301.347 143.298a54.77 54.77 0 0 0 32.194-24.876l26.898-44.835c6.136-10.23 3.156-23.476-6.77-30.093zM291.3 79.447c82.842.092 149.977 67.226 150.07 150.07a8.83 8.83 0 0 0 8.828 8.828 8.83 8.83 0 0 0 8.828-8.828c-.104-92.6-75.136-167.623-167.736-167.725a8.83 8.83 0 0 0-8.828 8.828 8.83 8.83 0 0 0 8.827 8.827zm0 52.965c53.603.063 97.04 43.5 97.103 97.103a8.83 8.83 0 0 0 8.828 8.828 8.83 8.83 0 0 0 8.828-8.828c-.073-63.35-51.4-114.686-114.76-114.76a8.83 8.83 0 0 0-8.828 8.828 8.83 8.83 0 0 0 8.828 8.828zm0 52.966c24.365.03 44.1 19.773 44.138 44.138a8.83 8.83 0 0 0 8.828 8.828 8.83 8.83 0 0 0 8.828-8.828c-.04-34.1-27.682-61.754-61.793-61.793a8.83 8.83 0 0 0-8.828 8.828 8.83 8.83 0 0 0 8.827 8.827z"/></svg>