<svg xmlns="http://www.w3.org/2000/svg" width="35" height="35"><defs><clipPath id="A"><path d="M23.944 26.102l6.464-4.983-1.57 16.106-26.992.445 1.78-44.195 25.657.148V5.19h-10.53l-.148 18.983.148 1.63z" fill="#000" fill-opacity="1" stroke="#000" stroke-width="1" stroke-linejoin="miter" stroke-opacity="1"/></clipPath></defs><circle r="23.532" cy="17.55" cx="15.45" fill="#dc3545"/><g fill="#fff"><g clip-path="url(#A)" transform="translate(-5.334)"><path d="M25.302 0H9.698a2.37 2.37 0 0 0-2.364 2.364v30.27c0 1.3 1.064 2.365 2.364 2.365h15.604a2.37 2.37 0 0 0 2.364-2.364V2.364A2.37 2.37 0 0 0 25.302 0zM15.004 1.704h4.992c.158 0 .286.128.286.287s-.128.286-.286.286h-4.992c-.158 0-.286-.128-.286-.286s.128-.287.286-.287zM17.5 33.818a1.18 1.18 0 1 1 0-2.365 1.18 1.18 0 1 1 0 2.365zm8.52-3.193H8.98V3.75H26.02z"/></g><path d="M30.064 6.594H15.917c-1.674.002-3.03 1.358-3.032 3.032v8.758c.002 1.673 1.358 3.03 3.032 3.032h.936l-.593 2.964c-.025.127.025.258.13.336s.243.09.358.028l6.326-3.328h7c1.673-.002 3.03-1.358 3.032-3.032V9.626c-.002-1.673-1.358-3.03-3.032-3.032zm2.358 11.79a2.36 2.36 0 0 1-2.358 2.358H22.99c-.055 0-.11.013-.157.04l-5.774 3.04.535-2.673c.02-.1-.005-.202-.07-.28s-.16-.124-.26-.124h-1.347a2.36 2.36 0 0 1-2.358-2.358V9.626a2.36 2.36 0 0 1 2.358-2.358h14.147a2.36 2.36 0 0 1 2.358 2.358zm0 0"/><g stroke="#fff"><path d="M14.642 7.676h16.686v12.726H14.642z" stroke-width=".908"/><path d="M13.88 8.336h18.068v11.277H13.88z" stroke-width=".89"/></g><path d="M17.046 23.842l.37-3.083 5.508.1z"/></g><path d="M15.29 13.9c0-2.222 1.808-4.03 4.03-4.03a4.03 4.03 0 0 1 3.586 2.198h6.42c.097 0 .2.038.26.107l1.466 1.466c.143.143.143.375 0 .518l-1.466 1.466c-.07.07-.162.107-.26.107h-.733c-.112 0-.218-.05-.287-.14l-.348-.44-.597.494c-.136.112-.33.112-.467 0l-.597-.494-.348.44a.36.36 0 0 1-.266.138c-.104.006-.206-.033-.28-.107l-.482-.482-.474.474c-.07.07-.162.107-.26.107l-1.32.01c-.686 1.343-2.03 2.2-3.547 2.198-2.222 0-4.03-1.808-4.03-4.03zm2.565 1.1a1.1 1.1 0 0 0 1.099-1.099 1.1 1.1 0 0 0-1.099-1.099 1.1 1.1 0 0 0-1.099 1.099 1.1 1.1 0 0 0 1.099 1.099z" fill="#dc3545"/></svg>