<svg xmlns="http://www.w3.org/2000/svg" width="100" height="51"><path d="M.848 25.925C.848 12.1 12.096.85 25.922.85c9.444 0 18.043 5.32 22.312 13.677H88.17a2.28 2.28 0 0 1 1.612.667l9.118 9.118a2.28 2.28 0 0 1 0 3.224l-9.118 9.118c-.428.428-1.007.667-1.612.667l-4.56-.002a2.28 2.28 0 0 1-1.787-.864l-2.166-2.733-3.713 3.074c-.844.7-2.062.7-2.906 0l-3.713-3.074-2.164 2.734c-.393.516-1.004.822-1.654.86s-1.284-.205-1.744-.664l-3-3-2.947 2.947c-.428.428-1.007.667-1.612.667L48 37.323C43.724 45.68 35.37 51.003 25.922 51 12.096 51 .848 39.752.848 25.925zm15.957 6.838c3.77 0 6.838-3.066 6.838-6.838s-3.066-6.838-6.838-6.838-6.838 3.066-6.838 6.838 3.066 6.838 6.838 6.838z" opacity="1" fill="#dc3545"/></svg>