<svg xmlns="http://www.w3.org/2000/svg" viewBox="0 0 512 512" fill="#dc3545"><path d="M95.112 299.22c-18.802 0-34.045 15.242-34.045 34.045S76.3 367.3 95.112 367.3s34.045-15.242 34.045-34.045S113.915 299.2 95.112 299.2zm0 51.067c-9.402 0-17.022-7.62-17.022-17.022s7.62-17.022 17.022-17.022 17.022 7.62 17.022 17.022-7.62 17.022-17.022 17.022zm195.758-42.555V290.7H154.7a8.51 8.51 0 0 0-8.51 8.51v68.1a8.51 8.51 0 0 0 8.51 8.51h136.18v-17H163.2v-17.022h127.67v-17.022H163.2v-17.022zM472.845 35.188c-42.305-44.095-112.348-45.546-156.443-3.24S270.856 144.294 313.16 188.4c1.058 1.102 2.138 2.183 3.242 3.242v56.523a8.51 8.51 0 0 0 8.51 8.51h17.022v30.52l-14.53 14.53c-3.323 3.324-3.323 8.7 0 12.035l14.53 14.53v61.042l-14.53 14.53c-3.323 3.324-3.323 8.7 0 12.035l11.005 11.005-11.005 11.005c-3.323 3.324-3.323 8.7 0 12.035l59.578 59.578c3.324 3.323 8.7 3.323 12.035 0l42.556-42.556a8.51 8.51 0 0 0 2.494-6.017V256.665h17.022a8.51 8.51 0 0 0 8.51-8.51V191.63c44.095-42.306 45.546-112.347 3.242-156.443zm-45.798 422.22l-34.045 34.045L345.46 443.9l11.005-11.005c3.323-3.324 3.323-8.7 0-12.035l-11.005-11.005 11.005-11.005a8.51 8.51 0 0 0 2.494-6.017v-68.1a8.51 8.51 0 0 0-2.494-6.017L345.46 307.73l11.005-11.005a8.51 8.51 0 0 0 2.494-6.017v-34.045h34.045v170.223h17.022V256.665h17.022zM452.58 239.64H333.424v-34.58c36.268 23.412 82.888 23.412 119.156 0zm-59.578-34.045c-51.68-.06-93.562-41.942-93.623-93.623 0-51.706 41.916-93.623 93.623-93.623s93.623 41.916 93.623 93.623-41.916 93.623-93.623 93.623zm0 238.314h17.022v17.022h-17.022zm0-408.535c-23.503 0-42.556 19.053-42.556 42.556.028 23.5 19.065 42.528 42.556 42.556 23.503 0 42.556-19.053 42.556-42.556s-19.052-42.556-42.556-42.556zm0 68.1c-14.102 0-25.534-11.432-25.534-25.534s11.432-25.534 25.534-25.534 25.534 11.432 25.534 25.534-11.432 25.534-25.534 25.534zM61.067 273.687H290.87v-17.022H139.2l14.4-86.397c4.716-28.77 29.617-49.86 58.77-49.782h44.454v-17.022H212.37c-37.478-.094-69.485 27.02-75.554 64.004l-14.87 89.197H96.72L114.313 155.5c7.73-44.883 46.692-77.655 92.236-77.58h50.275V60.908H206.55c-53.824-.085-99.87 38.64-109 91.682L79.443 256.665H69.58v-59.578a8.51 8.51 0 0 0-8.51-8.51H18.5a8.51 8.51 0 0 0-8.51 8.51v34.045a8.51 8.51 0 0 0 8.51 8.51h34.045v18.23a34.05 34.05 0 0 0-25.534 32.836v85.112c.023 16.17 11.4 30.1 27.236 33.355l3.847 15.397a25.45 25.45 0 0 0 19.984 18.852v60.063a8.51 8.51 0 0 0 8.51 8.51h102.134a8.51 8.51 0 0 0 8.51-8.51V443.9h93.623v-17.022H82.873a8.51 8.51 0 0 1-8.264-6.451l-2.638-10.57h218.9v-17.022H61.067c-9.402 0-17.022-7.62-17.022-17.022V290.7c0-9.402 7.622-17.022 17.022-17.022zM27.022 222.62v-17.022h25.534v17.022zm68.1 221.3h17.022v34.045h17.022V443.9h17.022v17.022H163.2V443.9h17.022v51.067h-85.1zm255.335-306.4h85.112v17.022h-85.112z"/></svg>