<svg xmlns="http://www.w3.org/2000/svg" viewBox="0 0 512 512"><defs><clipPath id="A"><path d="M474.722 198.116l61.983-17.906-31.68-207.987-331.953 20.66-267.215 289.253L-69.35 576.9l221.76-20.66 199.723-188.703 8.264-11.02 19.284-107.437z" fill="#000" fill-opacity="1" stroke="#000" stroke-width="1.27" stroke-linejoin="miter" stroke-opacity="1"/></clipPath></defs><g transform="matrix(-1 0 0 1 527.70345 0)" fill="#dc3545"><g clip-path="url(#A)" transform="matrix(.55687 -.55687 .55687 .55687 -133.83594 230.36012)"><path d="M341.333 0C247.23 0 170.666 76.563 170.666 170.667c0 11.208 1.22 22.708 3.625 34.26l-19.063 9.53a10.68 10.68 0 0 0-5.76 7.833 10.63 10.63 0 0 0 3 9.25l13.792 13.792L155.583 256h-16.917A10.66 10.66 0 0 0 128 266.667v16.917l-15.083 15.083H96a10.66 10.66 0 0 0-10.667 10.667v16.917L70.25 341.333H53.333A10.66 10.66 0 0 0 42.666 352v16.917l-39.54 39.54A10.66 10.66 0 0 0 0 416v85.333A10.66 10.66 0 0 0 10.667 512H96a10.66 10.66 0 0 0 7.542-3.125L266.667 345.75l13.792 13.792c2.417 2.427 5.865 3.563 9.25 3 3.385-.552 6.302-2.698 7.833-5.76l9.53-19.063C415.604 360.333 512 275.98 512 170.667 512 76.563 435.438 0 341.333 0zm-37.385 315.083c-4.833-1.23-9.948 1.063-12.198 5.563L285.073 334l-10.865-10.865c-4.167-4.167-10.917-4.167-15.083 0L91.583 490.667h-70.25v-70.25l39.542-39.542A10.66 10.66 0 0 0 64 373.333v-10.667h10.667a10.66 10.66 0 0 0 7.542-3.125l21.333-21.333a10.66 10.66 0 0 0 3.125-7.542V320h10.667a10.66 10.66 0 0 0 7.542-3.125l21.333-21.333a10.66 10.66 0 0 0 3.125-7.542v-10.667H160a10.66 10.66 0 0 0 7.542-3.125l21.333-21.333c4.167-4.167 4.167-10.917 0-15.083L178 226.927l13.344-6.677a10.67 10.67 0 0 0 5.563-12.198c-3.26-12.667-4.917-25.24-4.917-37.385 0-82.344 67-149.333 149.333-149.333s149.333 67 149.333 149.333c.001 94.5-88.176 169.8-186.718 144.416zM394.667 64c-29.406 0-53.333 23.927-53.333 53.333s23.927 53.333 53.333 53.333S448 146.74 448 117.333 424.073 64 394.667 64zm0 85.333c-17.646 0-32-14.354-32-32s14.354-32 32-32 32 14.354 32 32-14.354 32-32 32zm-178.21 131.125L67.125 429.792c-4.167 4.167-4.167 10.917 0 15.083 2.083 2.083 4.813 3.125 7.542 3.125s5.458-1.042 7.542-3.125l149.333-149.333c4.167-4.167 4.167-10.917 0-15.083s-10.917-4.167-15.084-.001z"/></g><path d="M281.303 40.282c-52.404 52.404-52.404 137.675 0 190.08 6.24 6.24 13.324 11.967 21.097 17.06l-5.308 15.923a8.41 8.41 0 0 0 1.154 7.57 8.39 8.39 0 0 0 6.816 3.486h15.36v11.88l-9.42 9.42a8.4 8.4 0 0 0 0 11.88l9.42 9.42v16.8l-9.42 9.42a8.4 8.4 0 0 0 0 11.88l9.42 9.42v16.798l-9.42 9.42a8.4 8.4 0 0 0 0 11.88l9.42 9.42v44.038c0 2.227.882 4.362 2.46 5.94l47.52 47.52a8.4 8.4 0 0 0 11.88 0l47.52-47.52c1.578-1.578 2.46-3.713 2.46-5.94V274.4h15.36c2.697.006 5.25-1.282 6.816-3.486a8.41 8.41 0 0 0 1.154-7.57l-5.308-15.923c73.036-47.84 79.742-148.493 21.097-207.138-52.404-52.404-137.674-52.404-190.08 0zm154.642 196.28c-3.376 2.007-4.948 6.132-3.695 9.9l3.713 11.15h-12.1a8.4 8.4 0 0 0-8.399 8.399V452.6l-39.12 39.12-39.12-39.12v-44.04c0-2.227-.882-4.362-2.46-5.94l-5.94-5.94 5.94-5.94c1.578-1.578 2.46-3.713 2.46-5.94v-23.76c0-2.227-.882-4.362-2.46-5.94l-5.94-5.94 5.94-5.94c1.578-1.578 2.46-3.713 2.46-5.94v-23.76c0-2.227-.882-4.362-2.46-5.94l-5.94-5.94 5.94-5.94c1.578-1.578 2.46-3.713 2.46-5.94V266a8.4 8.4 0 0 0-8.399-8.399h-12.1l3.713-11.15c1.253-3.76-.3-7.877-3.695-9.9-8.87-5.238-16.794-11.317-23.557-18.08-45.855-45.855-45.854-120.464 0-166.318s120.464-45.854 166.318 0c52.62 52.618 45.45 143.654-23.557 184.4zm-89.302-190.34c-16.375 16.375-16.375 43.024 0 59.4s43.024 16.375 59.4 0 16.376-43.023 0-59.4-43.024-16.375-59.4 0zm47.52 47.52c-9.827 9.827-25.813 9.827-35.64 0s-9.827-25.813 0-35.64 25.813-9.827 35.64 0 9.827 25.813 0 35.64zM367.942 266l.001 166.32a8.4 8.4 0 0 0 8.399 8.399c2.32 0 4.42-.94 5.94-2.46s2.46-3.62 2.46-5.94V266a8.4 8.4 0 0 0-16.8 0z"/></g></svg>