<svg xmlns="http://www.w3.org/2000/svg" height="682.667" viewBox="0 0 512 512" width="682.667" fill="#dc3545"><path d="M503.465 0H8.535C3.82 0 0 3.82 0 8.535V503.47c0 4.7 3.82 8.53 8.535 8.53H51.2a8.53 8.53 0 0 0 8.277-6.469l6.922-27.664h379.203l6.922 27.664c.95 3.8 4.36 6.47 8.277 6.47h42.668c4.7 0 8.53-3.82 8.53-8.53V8.535C512 3.82 508.18 0 503.465 0zM44.535 494.934h-27.47v-17.066H48.8zm450.398 0h-27.47l-4.266-17.066h31.734zm0-34.133H17.066V17.066h477.867zm-460.8-187.735H51.2v145.066c0 4.715 3.82 8.535 8.535 8.535h392.53c4.715 0 8.535-3.82 8.535-8.535v-51.2h8.53c4.715 0 8.535-3.82 8.535-8.535v-51.2c0-4.7-3.82-8.53-8.535-8.53h-8.53V179.2h8.53c4.715 0 8.535-3.82 8.535-8.53v-51.2c0-4.715-3.82-8.535-8.535-8.535h-8.53v-51.2c0-4.715-3.82-8.535-8.535-8.535H59.734c-4.715 0-8.535 3.82-8.535 8.535V204.8H34.133c-4.7 0-8.53 3.82-8.53 8.53v51.203c0 4.7 3.82 8.53 8.53 8.53zm426.668 76.8h-25.6v-34.133h25.6zm0-221.867v34.133h-25.6V128zM68.266 68.266h375.47v42.668H426.67c-4.715 0-8.535 3.82-8.535 8.535v51.2c0 4.7 3.82 8.53 8.535 8.53h17.066v119.47H426.67c-4.715 0-8.535 3.82-8.535 8.53v51.2c0 4.715 3.82 8.535 8.535 8.535h17.066v42.668H68.266V273.066h17.066c4.715 0 8.535-3.82 8.535-8.53v-51.203c0-4.7-3.82-8.53-8.535-8.53H68.266zm-25.598 153.6H76.8V256H42.668zm0 0"/><path d="M256 217.602c18.852 0 34.133-15.285 34.133-34.133s-15.28-34.137-34.133-34.137-34.133 15.285-34.133 34.137 15.28 34.133 34.133 34.133zm0-51.203c9.426 0 17.066 7.645 17.066 17.07A17.07 17.07 0 0 1 256 200.535c-9.426 0-17.066-7.645-17.066-17.066s7.64-17.07 17.066-17.07zm0 115.203c-23.562-.125-42.766 18.88-42.887 42.44s18.88 42.766 42.445 42.9a42.67 42.67 0 0 0 34.352-17.066h59.957c14.137 0 25.598-11.46 25.598-25.602s-11.46-25.598-25.598-25.598H289.9a42.46 42.46 0 0 0-33.9-17.064zm0 68.266c-14.137 0-25.602-11.46-25.602-25.602s11.465-25.598 25.602-25.598 25.602 11.46 25.602 25.598-11.465 25.602-25.602 25.602zm41.813-34.133h52.055c4.7 0 8.53 3.82 8.53 8.53a8.54 8.54 0 0 1-8.53 8.535h-52.055a42.7 42.7 0 0 0 0-17.066zm0 0"/><path d="M256 264.535c44.773 0 81.066-36.297 81.066-81.066s-36.293-81.07-81.066-81.07-81.066 36.297-81.066 81.07c.05 44.75 36.316 81.012 81.066 81.066zm-51.2-89.602h-12.16a63.56 63.56 0 0 1 12.543-30.215l8.535 8.582c3.332 3.336 8.734 3.336 12.07.004a8.54 8.54 0 0 0 .004-12.07l-8.586-8.582c8.816-6.754 19.25-11.078 30.258-12.547v12.16a8.54 8.54 0 0 0 8.535 8.535 8.54 8.54 0 0 0 8.535-8.535v-12.16c10.992 1.477 21.4 5.8 30.215 12.547l-8.586 8.582a8.54 8.54 0 0 0 .004 12.07c3.336 3.332 8.738 3.332 12.07-.004l8.535-8.582c6.746 8.805 11.07 19.22 12.543 30.215H307.2c-4.71 0-8.53 3.82-8.53 8.535s3.82 8.53 8.53 8.53h12.16a63.59 63.59 0 0 1-12.543 30.219l-8.535-8.586c-3.332-3.336-8.734-3.336-12.07-.004a8.54 8.54 0 0 0-.004 12.07l8.586 8.582c-8.816 6.754-19.25 11.078-30.258 12.547v-12.16a8.54 8.54 0 0 0-8.535-8.535 8.54 8.54 0 0 0-8.535 8.535v12.16c-10.992-1.477-21.4-5.8-30.215-12.547l8.586-8.582a8.54 8.54 0 0 0-.004-12.07c-3.336-3.332-8.738-3.332-12.07.004l-8.535 8.586c-6.746-8.81-11.07-19.223-12.543-30.22H204.8c4.71 0 8.53-3.82 8.53-8.53s-3.82-8.535-8.53-8.535zm0 0"/></svg>