<svg xmlns="http://www.w3.org/2000/svg" viewBox="0 0 512 512" fill="#dc3545"><path d="M325.813 427.573H427.95a8.51 8.51 0 0 0 8.51-8.51V342.46a8.51 8.51 0 0 0-8.51-8.51H325.813a8.51 8.51 0 0 0-8.51 8.51v76.602a8.51 8.51 0 0 0 8.51 8.51zm8.5-76.602h85.114v59.58h-85.114zm-144.69-17.023H87.85a8.51 8.51 0 0 0-8.51 8.51v76.602a8.51 8.51 0 0 0 8.51 8.51h101.78a8.51 8.51 0 0 0 8.51-8.51v-76.6a8.51 8.51 0 0 0-8.51-8.51zm-8.5 76.602h-84.76v-59.58h84.76zm306.408 51.068h-17.023V316.07a42.63 42.63 0 0 0 34.045-41.7v-17.023a8.48 8.48 0 0 0-2.863-6.355l.006-.007-73.746-65.55v-64.268c-.016-14.095-11.44-25.518-25.534-25.534H346.41l-3.605-43.263c-.367-4.4-4.055-7.805-8.482-7.805h-42.557V27.54A25.52 25.52 0 0 0 249.21 8.529a25.52 25.52 0 0 0-42.557 19.011v17.023H181.12c-4.427 0-8.114 3.393-8.482 7.805l-3.605 43.263H113.03c-14.095.016-25.518 11.44-25.534 25.534v64.268l-73.74 65.56a8.48 8.48 0 0 0-2.863 6.354v17.023a42.63 42.63 0 0 0 34.045 41.7v145.55H27.916c-14.102 0-25.534 11.432-25.534 25.534s11.432 25.534 25.534 25.534H487.53c14.102 0 25.534-11.432 25.534-25.534s-11.432-25.534-25.534-25.534zm0-187.25c0 14.102-11.432 25.534-25.534 25.534s-25.534-11.432-25.534-25.534v-8.5h51.068zM99.243 197.766h15.452l-31.918 51.068H41.8zm374.4 51.068h-40.986l-31.918-51.068h15.452zm-92.978-51.068l31.918 51.068h-45.22l-6.384-51.068zm-36.84 0l6.384 51.068h-49.93v-51.068zm-60.577 51.068H232.18v-51.068h51.068zm-68.1 0H165.22l6.384-51.068h43.555zm-67.093 0h-45.22l31.918-51.068h19.686zM96 265.857h51.068v8.5c0 14.102-11.432 25.534-25.534 25.534S96 288.47 96 274.367zm68.1 0h51.068v8.5c0 14.102-11.432 25.534-25.534 25.534s-25.534-11.432-25.534-25.534zm68.1 0h51.068v8.5c0 14.102-11.432 25.534-25.534 25.534s-25.534-11.432-25.534-25.534zm68.1 0h51.068v8.5c0 14.102-11.432 25.534-25.534 25.534s-25.534-11.432-25.534-25.534zm68.1 0h51.068v8.5c0 14.102-11.432 25.534-25.534 25.534s-25.534-11.432-25.534-25.534zM326.493 61.585l7.093 85.114H299.6l-7.093-85.114zm-60.26-42.557a8.52 8.52 0 0 1 8.51 8.51V44.56H257.72V27.54a8.52 8.52 0 0 1 8.51-8.51zm-42.557 8.5a8.51 8.51 0 1 1 17.02 0V44.56h-17.023zM188.95 61.583h17.703v17.023h17.023v-17.02H240.7v17.023h17.023V61.585h17.703l7.093 85.114H181.86zm-84.434 59.58a8.52 8.52 0 0 1 8.51-8.51h54.585l-3.488 41.85a8.51 8.51 0 0 0 8.482 9.218h170.227a8.51 8.51 0 0 0 8.482-9.218l-3.488-41.85h54.585a8.52 8.52 0 0 1 8.51 8.51v59.58h-306.4zm-76.6 153.205v-8.5h51.068v8.5c0 14.102-11.432 25.534-25.534 25.534s-25.534-11.432-25.534-25.534zm34.045 41.7a42.63 42.63 0 0 0 25.534-16.196 42.51 42.51 0 0 0 68.09 0 42.51 42.51 0 0 0 68.09 0 42.51 42.51 0 0 0 68.09 0 42.51 42.51 0 0 0 68.09 0 42.51 42.51 0 0 0 68.09 0 42.63 42.63 0 0 0 25.534 16.196v145.55h-153.2V342.46a8.51 8.51 0 0 0-8.51-8.51h-68.1a8.51 8.51 0 0 0-8.51 8.51v119.16H61.96zm221.295 145.55h-51.068V350.97h51.068zm204.272 34.045H27.916a8.51 8.51 0 1 1 0-17.02H487.53a8.51 8.51 0 1 1 0 17.02z"/></svg>