<svg xmlns="http://www.w3.org/2000/svg" viewBox="0 0 496 496" fill="#dc3545"><path d="M120 0v288H0v48h120v160h176V0H120zM16 320v-16h224v16H16zm178.224-32c2.776-4.76 7.88-8 13.776-8s11 3.24 13.776 8h-27.552zM280 480H136V336h120v-48h-17.136c-3.576-13.768-15.992-24-30.864-24s-27.288 10.232-30.864 24H136V16h144v464zM248 32h-80a16.02 16.02 0 0 0-16 16v32a16.02 16.02 0 0 0 16 16h80a16.02 16.02 0 0 0 16-16V48a16.02 16.02 0 0 0-16-16zm-80 48V48h80l.008 32H168zm32 72h16v16h-16zm0-40h16v16h-16zm0 80h16v16h-16zm8 160c-30.872 0-56 25.128-56 56s25.128 56 56 56 56-25.128 56-56-25.128-56-56-56zm0 96c-22.056 0-40-17.944-40-40s17.944-40 40-40 40 17.944 40 40-17.944 40-40 40zm0-64v16c4.416 0 8 3.584 8 8h16c0-13.232-10.768-24-24-24zm264-240H344c-13.232 0-24 10.768-24 24v224c0 13.232 10.768 24 24 24h128c13.232 0 24-10.768 24-24V168c0-13.232-10.768-24-24-24zM368 400h-24c-4.416 0-8-3.584-8-8V168a8.01 8.01 0 0 1 8-8h24v240zm112-8c0 4.416-3.584 8-8 8h-88V160h88a8.01 8.01 0 0 1 8 8v224zm-48-200c-17.648 0-32 14.352-32 32 0 14.864 10.232 27.288 24 30.864V328h-16v16h16v16h-16v16h32V254.864c13.768-3.576 24-16 24-30.864 0-17.648-14.352-32-32-32zm0 48a16.02 16.02 0 0 1-16-16 16.02 16.02 0 0 1 16-16 16.02 16.02 0 0 1 16 16 16.02 16.02 0 0 1-16 16zm-8-24h16v16h-16zM391.024 87.04l11.328 11.296c3-3.016 8.296-3.016 11.296 0l11.328-11.296c-9.048-9.08-24.904-9.08-33.952 0zM408 40c-17.096 0-33.168 6.656-45.248 18.744l11.312 11.312C383.136 60.992 395.176 56 408 56c12.816 0 24.872 4.992 33.944 14.064l11.312-11.32C441.16 46.656 425.088 40 408 40zm0-40c-27.776 0-53.888 10.816-73.536 30.464l11.312 11.312C362.4 25.152 384.496 16 408 16s45.6 9.152 62.224 25.776l11.312-11.312C461.888 10.816 435.776 0 408 0z"/></svg>