<svg xmlns="http://www.w3.org/2000/svg" viewBox="0 0 512 512" fill="#dc3545"><path d="M304.682 41.605c-13.414 0-24.33 10.916-24.33 24.33v8.1h16.22v-8.1a8.12 8.12 0 0 1 8.11-8.11 8.12 8.12 0 0 1 8.11 8.11v1.387a8.07 8.07 0 0 1-2.376 5.742L280.35 103.13v19.578h48.662v-16.22H299.93l21.954-21.954a24.16 24.16 0 0 0 7.13-17.2v-1.387c0-13.414-10.916-24.33-24.33-24.33zm89.212 0H373.78L337.123 87.42v19.067h40.55v16.22h16.22v-16.22h16.22v-16.22h-16.22zm-16.22 48.662h-22.06l22.06-27.567zm72.992-24.33c-2.855 0-5.564.584-8.1 1.492V41.605h-16.22v81.103h16.22v-32.44a8.12 8.12 0 0 1 8.11-8.11 8.12 8.12 0 0 1 8.11 8.11v32.44h16.22v-32.44c0-13.414-10.916-24.33-24.33-24.33zM366.344 387.92l-67.526-23.828c-4.858-1.7-8.516-5.596-10.05-10.332-.324-1.014-.38-2.117-.503-3.195 7.064-4.955 13.487-10.665 19.205-17h37.76c13.414 0 24.33-10.916 24.33-24.33v-87.94c0-9.854-1.5-19.505-4.12-28.808 4.404 6.788 12 11.314 20.7 11.314a24.6 24.6 0 0 0 18.962-8.881l33.155-39.78h44.858c13.414 0 24.33-10.916 24.33-24.33V33.495c0-13.414-10.916-24.33-24.33-24.33H272.24c-13.414 0-24.33 10.916-24.33 24.33v82.287c-5.58.795-11.062 1.987-16.407 3.633.065-1.606.187-3.212.187-4.817 0-62.6-50.932-113.544-113.544-113.544S4.602 51.986 4.602 114.597 55.535 228.14 118.146 228.14c8.24 0 16.375-.957 24.33-2.693v43.244c0 22.36 18.2 40.55 40.55 40.55h4.63c8.378 16.27 20.6 30.35 35.685 41.038-.592 6.237-4.6 11.703-10.592 13.82l-67.526 23.828a88.5 88.5 0 0 0-17.518 8.443 87.78 87.78 0 0 0-10.965 8.135c-19.27 16.626-31.038 41.103-31.038 67.55V512h340.16v-39.943c0-26.448-11.768-50.932-31.038-67.558l.016-.016c-2.774-2.393-6-4.9-9.757-7.324-6.813-4.412-13.317-7.307-18.743-9.238zM324.43 155.15c18.362 17.105 28.913 41.014 28.913 66.155v14.444a38.78 38.78 0 0 0-16.634-6.967c-.584-3.277-1.792-6.415-3.674-9.23l-4.882-7.315a37.06 37.06 0 0 0-30.9-16.537 37.08 37.08 0 0 0-20.608 6.237l-12.936 8.62a8.02 8.02 0 0 1-4.485 1.363H199.25c-10.8 0-19.894 7.137-23.05 16.9-6.513 1.12-12.433 3.796-17.502 7.624V204.8a34.67 34.67 0 0 1 26.293-33.682l2.66-.665 4.55-5.685c13.95-17.437 33.966-29.035 55.84-32.684.673 12.822 11.216 23.066 24.2 23.066zM21.236 122.7H53.5c.446 11.4 1.8 22.28 3.966 32.44h-27.67c-4.615-10.024-7.6-20.94-8.548-32.44zm193.82-16.22H182.8c-.446-11.4-1.8-22.28-3.966-32.44H206.5c4.623 10.024 7.6 20.94 8.556 32.44zm-.35 19.7c-13.495 6.837-25.58 16.456-35.182 28.467l-.397.495h-.43c2.222-10.365 3.56-21.25 4.006-32.44h32.4c-.1 1.168-.26 2.32-.406 3.48zm-71.638 71.346c-4.185 5.118-9.862 10.43-16.813 12.928v-39.1h28.913c-6.367 7.283-10.68 16.27-12.1 26.164zm-16.813-42.384v-32.44H166.5c-.487 11.273-1.906 22.214-4.33 32.44zm40.34-48.662h-40.34V74.05h35.904c2.384 10.073 3.933 20.997 4.436 32.44zm-40.34-48.662V18.8c12.587 4.444 23.666 18.913 31.054 39.027zM110.036 18.8v39.027H78.98c7.4-20.115 18.468-34.583 31.056-39.027zm0 55.247v32.44h-40.34c.503-11.444 2.052-22.368 4.436-32.44zm-56.545 32.44H21.236a96.4 96.4 0 0 1 8.556-32.44h27.664c-2.165 10.162-3.528 21.03-3.966 32.44zm16.204 16.22h40.34v32.44H74.14c-2.393-10.073-3.942-20.997-4.444-32.44zm40.34 48.662v39.027C97.448 205.96 86.37 191.5 78.98 171.37zm87-113.544h-22.5c-3.86-11.922-8.88-22.5-14.874-31.12 14.94 7.088 27.77 17.834 37.364 31.12zM76.62 26.707c-5.993 8.63-11.014 19.197-14.874 31.12h-22.5C48.84 44.542 61.67 33.797 76.6 26.707zM39.257 171.37h22.5c3.86 11.922 8.88 22.5 14.874 31.12-14.94-7.088-27.77-17.834-37.364-31.12zm119.44 97.323c0-10.56 6.805-19.48 16.22-22.838v10.78a114.97 114.97 0 0 0 5.83 36.156c-12.336-1.168-22.052-11.46-22.052-24.096zM280.87 371.32c.04.04.097.08.138.122l-25.23 30.284-25.223-30.276c3.382-3.47 5.945-7.68 7.5-12.295 4.923 2.474 10.04 4.663 15.393 6.448l2.563.852 2.563-.852c5.207-1.736 10.186-3.87 14.996-6.27a35.39 35.39 0 0 0 2.976 6.269 35.52 35.52 0 0 0 4.315 5.718zm10.68 124.46h-16.7l14.955-45.62 20.324 15.247zm-89.7-30.34l20-15.004 14.866 45.344H220.06zm-18.824-73.65l17.575-6.204 14.34 43.763-31.914-5.32zm33.512-11.825l27.964 33.552-13.998 11.2-14.6-44.525zm19.35 61.208l19.894-15.92 19.894 15.92-17.9 54.606H253.8zm59.148-61.208l.633.227-14.6 44.525-13.998-11.2zm15.93 5.62l18.094 6.383-.04 32.052-32.417 5.4zm-144.16 11.93v40.25l36.74 6.123-23.13 17.348 20.73 34.542h-34.34v-40.55h-16.22v40.55h-48.662v-23.722c0-22.628 10.568-43.447 27.64-57.048 4.104-3.496 10.073-7.85 17.98-11.492a78.03 78.03 0 0 1 19.262-6.002zm215.198 17.494c17.072 13.6 27.64 34.42 27.64 57.048v23.722h-48.2v-40.55h-16.22v40.55H310.57l21.103-34.5-23.18-17.388 36.73-6.123.05-40.073a78.61 78.61 0 0 1 19.66 6.318c7.43 3.52 13.098 7.64 17.072 10.998zM256.02 349.316c-38.92-14.16-64.882-51.062-64.882-92.684v-20.38a8.12 8.12 0 0 1 8.11-8.11h59.975a24.15 24.15 0 0 0 13.495-4.088l12.928-8.613c9.294-6.188 22.83-3.48 29.018 5.8l4.882 7.307a8.25 8.25 0 0 1 1.354 4.5v23.585c0 22.603-7.705 43.787-20.94 60.72h-43.94v16.22h27.924c-8.248 6.6-17.615 11.995-27.924 15.742zm89.213-31.963H319.76c1.646-2.644 3.195-5.337 4.623-8.1h5.945c8.62 0 16.537-2.88 23.017-7.607v7.607a8.12 8.12 0 0 1-8.11 8.11zm8.1-47.34c0 12.376-9.846 22.425-22.1 22.92 3.82-11.492 5.88-23.706 5.88-36.302v-11.127c9.36 2.92 16.22 11.565 16.22 21.873v1.314zm-6.926-114.866h15.036v23.982c0 .803.162 1.557.235 2.336-3.804-9.432-8.913-18.3-15.272-26.318zm144.8-24.33a8.12 8.12 0 0 1-8.11 8.11h-52.465l-38.02 45.62c-1.598 1.93-3.966 3.04-6.488 3.04-4.663 0-8.46-3.796-8.46-8.46v-40.203H272.24a8.12 8.12 0 0 1-8.11-8.11v-97.32a8.12 8.12 0 0 1 8.11-8.11h210.867a8.12 8.12 0 0 1 8.11 8.11z"/></svg>