<svg xmlns="http://www.w3.org/2000/svg" viewBox="0 0 512 512" fill="#dc3545"><path d="M507.065 148.326l-63.686-37.333v-57.17h8.485a8.49 8.49 0 0 0 8.485-8.485V11.4a8.49 8.49 0 0 0-8.485-8.485h-84.847a8.49 8.49 0 0 0-8.485 8.485v33.94a8.49 8.49 0 0 0 8.485 8.485h8.485V71.2L261.007 4.086c-2.65-1.555-5.936-1.555-8.587 0L6.363 148.326c-2.595 1.522-4.2 4.305-4.2 7.314v42.424c.002 3.04 1.63 5.85 4.27 7.36a8.49 8.49 0 0 0 8.508-.045l21.16-12.405V414.9a33.83 33.83 0 0 0-16.969 29.221c-.001 1.5.102 2.995.305 4.48-13.44 7.554-20.083 23.23-16.164 38.14A33.87 33.87 0 0 0 36.1 512h441.207c15.416.03 28.908-10.35 32.827-25.26s-2.724-30.584-16.163-38.137a32.74 32.74 0 0 0 .305-4.48 33.83 33.83 0 0 0-16.969-29.221v-221.93l21.16 12.405a8.48 8.48 0 0 0 8.508.045 8.49 8.49 0 0 0 4.27-7.36V155.64c-.002-3-1.596-5.8-4.2-7.314zM375.5 19.884h67.878v16.97H375.5zm16.97 33.94h33.94v47.218l-33.94-19.897zM36.1 495.03a16.92 16.92 0 0 1-4.404-33.26 8.49 8.49 0 0 0 5.374-4.408c1.08-2.168 1.18-4.697.277-6.945a16.91 16.91 0 1 1 32.013-10.699 8.49 8.49 0 0 0 4.408 5.374c2.168 1.08 4.697 1.18 6.945.277a17.05 17.05 0 0 1 13.8.656 17.06 17.06 0 0 1 8.786 10.663 8.49 8.49 0 0 0 4.408 5.374c2.168 1.08 4.697 1.18 6.945.277a16.97 16.97 0 1 1 6.296 32.692zm118.786-16.97H358.53a33.59 33.59 0 0 0 4.718 16.969H150.18a33.59 33.59 0 0 0 4.718-16.969zm144.24-50.908H214.3V274.427h84.847zm16.97 16.97v16.97H197.32v-16.97zM481.72 461.77a16.92 16.92 0 0 1-4.404 33.26H392.47a16.97 16.97 0 1 1 6.296-32.692c2.248.904 4.776.803 6.945-.277s3.773-3.035 4.408-5.374c1.3-4.636 4.482-8.5 8.784-10.666s9.316-2.393 13.802-.652c2.248.904 4.776.803 6.945-.277s3.773-3.035 4.408-5.374a16.91 16.91 0 1 1 32.013 10.699c-.904 2.248-.803 4.776.277 6.945s3.035 3.773 5.374 4.408zm-21.373-51.587a33.94 33.94 0 0 0-29.459 17.275 34.04 34.04 0 0 0-33.939 16.969 32.74 32.74 0 0 0-4.48-.305 33.83 33.83 0 0 0-29.221 16.969h-30.172v-25.454a8.49 8.49 0 0 0-8.485-8.485h-8.485v-161.2a8.49 8.49 0 0 0-8.485-8.485H205.805a8.49 8.49 0 0 0-8.485 8.485v161.2h-8.485a8.49 8.49 0 0 0-8.485 8.485v25.454h-30.17a33.83 33.83 0 0 0-29.221-16.969c-1.5-.001-2.995.102-4.48.305a34.08 34.08 0 0 0-33.94-16.97 33.94 33.94 0 0 0-29.459-17.275V183.03L256.714 63.657 460.348 183.03zM476.12 172.6L261.007 46.5c-2.65-1.555-5.936-1.555-8.587 0L19.14 183.258v-22.756l237.573-139.27 237.573 139.27v22.756l-16.97-9.953zm-270.315 0v42.424a8.49 8.49 0 0 0 8.485 8.485h84.847a8.49 8.49 0 0 0 8.485-8.485V172.6c0-28.116-22.792-50.908-50.908-50.908s-50.908 22.792-50.908 50.908zm42.424-32.734v24.25h-24.25c3.1-11.88 12.368-21.16 24.25-24.25zm-25.454 41.22h25.454v25.454h-25.454zM265.2 206.54v-25.454h25.454v25.454zm24.25-42.424H265.2v-24.25c11.88 3.1 21.16 12.368 24.25 24.25z"/><path d="M350.046 359.274h84.847a8.49 8.49 0 0 0 8.485-8.485v-84.847a8.49 8.49 0 0 0-8.485-8.485h-84.847a8.49 8.49 0 0 0-8.485 8.485v84.847a8.49 8.49 0 0 0 8.485 8.485zm8.485-16.97v-16.97h67.878v16.97zm67.878-67.878v33.94h-67.88v-33.94zm-263.03-16.97H78.534a8.49 8.49 0 0 0-8.485 8.485v84.847a8.49 8.49 0 0 0 8.485 8.485h84.847a8.49 8.49 0 0 0 8.485-8.485v-84.847a8.49 8.49 0 0 0-8.485-8.485zm-8.485 16.97v33.94H87.02v-33.94zM87.02 342.305v-16.97h67.878v16.97z"/></svg>