<svg xmlns="http://www.w3.org/2000/svg" viewBox="0 0 382 382"><path d="M36.626 26.044h319.33v331.92H36.626z" opacity="1" fill="#fff"/><path d="M347.445 0h-312.9C15.47 0 0 15.47 0 34.555v312.89C0 366.53 15.47 382 34.555 382h312.89C366.53 382 382 366.53 382 347.444V34.555C382 15.47 366.53 0 347.445 0zM118.207 329.844a10.06 10.06 0 0 1-10.056 10.056H65.345a10.06 10.06 0 0 1-10.056-10.056v-179.44a10.06 10.06 0 0 1 10.056-10.056h42.806a10.06 10.06 0 0 1 10.056 10.056v179.44zm-31.46-206.412c-22.46 0-40.666-18.207-40.666-40.666S64.29 42.1 86.748 42.1s40.666 18.207 40.666 40.666-18.206 40.666-40.666 40.666zM341.9 330.654a9.25 9.25 0 0 1-9.246 9.246H286.73a9.25 9.25 0 0 1-9.246-9.246v-84.168c0-12.556 3.683-55.02-32.813-55.02-28.31 0-34.05 29.066-35.204 42.1v97.08a9.25 9.25 0 0 1-9.246 9.246h-44.426a9.25 9.25 0 0 1-9.246-9.246v-181.06a9.25 9.25 0 0 1 9.246-9.246h44.426a9.25 9.25 0 0 1 9.246 9.246v15.655c10.497-15.753 26.097-27.912 59.312-27.912 73.552 0 73.13 68.716 73.13 106.472v86.846z" fill="#0077b7"/></svg>