<svg xmlns="http://www.w3.org/2000/svg" viewBox="0 0 512 512"><path d="M45.852 45.655h405.306V461.81H45.852z" fill="#fff" stroke="#fff" stroke-width=".586"/><path d="M484.14 30.02c-18.698-18.703-41.226-28.056-67.567-28.056H97.8c-26.34 0-48.87 9.353-67.575 28.056S2.17 71.254 2.17 97.595v318.77c0 26.34 9.353 48.87 28.056 67.575S71.46 512 97.8 512h318.77c26.34 0 48.87-9.353 67.567-28.06 18.706-18.706 28.06-41.234 28.06-67.575V97.595c-.001-26.342-9.354-48.872-28.056-67.575zm-64.26 359.09c-4.65 10.18-15.108 19.04-31.375 26.57s-30.72 11.295-43.34 11.295c-3.543 0-7.307-.273-11.29-.827s-7.355-1.107-10.122-1.66-6.423-1.548-10.957-2.99c-4.542-1.435-7.8-2.546-9.795-3.32l-10.957-4.147-9.958-3.65c-36.304-13.3-71.784-37.25-106.426-71.892-34.642-34.65-58.607-70.122-71.9-106.42-.44-1.33-1.657-4.65-3.652-9.96l-4.153-10.955c-.77-1.992-1.878-5.258-3.318-9.793s-2.432-8.19-2.987-10.96c-.556-2.763-1.105-6.137-1.66-10.123s-.83-7.754-.83-11.293c0-12.62 3.765-27.063 11.293-43.334s16.38-26.728 26.565-31.378c11.733-4.872 22.912-7.307 33.54-7.307 2.432 0 4.206.223 5.31.665 1.108.448 2.936 2.435 5.483 5.978s5.313 8.024 8.3 13.448l8.8 15.773 8.303 15.11 4.98 9.46c.664 1.113 2.104 3.212 4.316 6.314s3.876 5.86 4.98 8.298 1.66 4.76 1.66 6.974c0 3.325-2.27 7.363-6.808 12.12s-9.52 9.135-14.945 13.12-10.403 8.248-14.942 12.786-6.806 8.242-6.806 11.12c0 1.55.387 3.375 1.163 5.478s1.495 3.823 2.16 5.15 1.718 3.2 3.154 5.648l2.822 4.65c12.174 21.915 26.178 40.788 42.002 56.618 15.83 15.832 34.7 29.83 56.62 42.005.66.447 2.212 1.385 4.657 2.826 2.432 1.433 4.318 2.484 5.644 3.148s3.04 1.385 5.146 2.154 3.932 1.162 5.488 1.162c3.53 0 8.403-3.65 14.608-10.954l18.93-21.755c6.415-7.19 11.613-10.786 15.606-10.786 2.212 0 4.532.55 6.977 1.656 2.437 1.106 5.198 2.77 8.295 4.982 3.104 2.22 5.206 3.654 6.313 4.328l17.59 9.62c11.734 6.2 21.53 11.678 29.4 16.438s12.124 8.024 12.79 9.792c.44 1.106.656 2.882.656 5.317-.008 10.616-2.445 21.797-7.324 33.5z" fill="#4ced68"/></svg>