<svg xmlns="http://www.w3.org/2000/svg" viewBox="0 0 512 512"><path d="M0 512l35.3-128C12.36 344.276 0 300.138 0 254.234 0 114.76 114.76 0 255.117 0S512 114.76 512 254.234 395.476 512 255.117 512c-44.138 0-86.5-14.124-124.47-35.3z" fill="#fff"/><path d="M131.653 439.735l8.352 4.64C174.34 465.718 214.242 478.71 256 478.71c121.562 0 222.71-101.148 222.71-224.566S377.562 33.29 255.072 33.29 33.29 131.653 33.29 254.144c0 42.686 12.064 84.444 34.334 119.707l5.568 8.352-21.343 77.95z" fill="#4ced69"/><path d="M176.282 117.844l-19.3-1.016c-6.096 0-12.19 2.032-16.254 6.096-9.143 8.127-24.38 23.365-28.445 43.684-7.11 30.477 4.064 67.05 30.477 103.62s77.208 95.494 166.606 120.89c28.445 8.127 50.795 3.047 69.08-8.127 14.223-9.143 23.365-23.365 26.414-38.604l3.047-14.223c1.016-4.064-1.016-9.143-5.08-11.174l-64.002-29.46c-4.064-2.032-9.143-1.016-12.19 3.047l-25.397 32.508c-2.032 2.032-5.08 3.047-8.127 2.032-17.27-6.096-75.176-30.477-106.67-91.43-1.016-3.047-1.016-6.096 1.016-8.127l24.38-27.43c2.032-3.047 3.047-7.11 2.032-10.16L184.4 123.94c-1.017-3.05-4.065-6.096-8.128-6.096" fill="#fefefe"/></svg>